PathFileType	4	(X/Y/Z)	C:\Users\°ÂÌØÂü\Desktop\20210112\bx_n_10_502-Unnamed.trc
DataRate	CameraRate	NumFrames	NumMarkers	Units	OrigDataRate	OrigDataStartFrame	OrigNumFrames
50.00	50.00	       4	0	mm	50.00	355	       473
Frame#	Time	
		

355	7.080	-792.00098	148.34830	571.42365	-755.10999	238.39812	1010.54175	-857.67664	291.50455	866.89716	-750.29810	214.58733	813.20905	-926.27765	94.90532	1097.57410	-837.40082	284.70792	730.67737	-842.77472	258.30817	627.30408	-344.73993	-60.02101	1159.92102	-746.41040	-4.19033	806.02588	-828.09393	252.57596	564.18011	-750.04114	16.58335	526.57660	-849.56805	265.10303	485.02856	-766.35608	210.51578	536.82141	-758.35431	-5.74516	987.56158	-720.40863	159.24144	222.86694	-772.63989	232.07944	201.80441	-882.66400	295.98529	144.64816	-672.73505	51.55130	162.24078	-676.41626	176.72363	163.02861	-594.19440	220.27180	174.03827	-659.63031	298.84628	156.29578	-623.23615	306.57983	158.33791	-557.56940	255.30690	163.83159	-527.94812	303.98865	146.28252	-140.65472	96.31282	1351.16602	-792.99664	73.11421	568.15112	-517.98364	-73.33376	143.06931	-549.78760	-27.84669	163.08237	-798.07623	182.09892	181.96404				-792.87311	36.18284	172.62679	-724.88361	66.04892	219.97339	-831.73517	-49.35767	474.14941	-598.30188	26.35584	166.09219	-761.45459	-22.42761	202.98366	-875.89343	-78.76452	140.93599	-835.00653	-72.43179	862.79065	-830.15088	-64.23588	747.48169	-606.25128	-75.58802	156.70946	-647.40582	-67.73012	161.70357										-813.63922	-36.34324	609.17792	-810.14948	-34.70571	561.40753	
356	7.100	-792.28754	148.16759	571.20996	-755.13507	238.24600	1010.88824	-857.39185	290.82169	866.79108	-750.00580	214.28661	813.64355	-926.47620	94.72394	1097.39465	-837.31769	284.31046	730.84064	-842.85590	258.12869	627.30853	-346.12982	-61.65169	1161.11462	-746.69299	-4.85804	805.94214	-828.09393	252.57596	564.18011	-750.07635	16.21149	526.31317	-849.59180	264.62759	485.11926	-766.35980	210.19244	536.48083	-758.45660	-6.43126	988.09949	-720.40863	159.24144	222.86694	-772.74792	232.15273	201.77377	-882.63977	296.13834	144.66783	-672.73505	51.55130	162.24078	-676.41626	176.72363	163.02861	-594.05328	220.14615	174.01189	-659.56604	298.96671	156.37253	-623.29407	306.63193	157.99805	-557.56464	255.41597	163.86162	-527.95679	304.04678	146.31200	-142.02400	94.85645	1355.21680	-793.18781	72.89777	568.12177	-518.00690	-73.25111	142.97835	-549.88641	-28.12246	163.28375	-798.04773	182.02838	181.75061				-792.88568	36.20085	172.66620	-725.25415	66.00388	220.05783	-831.71954	-49.42212	474.12323	-598.20874	26.03003	166.21220	-761.99347	-22.66726	203.37541	-875.88177	-78.82832	140.88193	-835.22083	-73.08010	862.88403	-830.23010	-64.88878	747.58447	-606.37909	-75.56873	156.60350	-647.61920	-67.94055	161.75131										-813.83215	-36.85546	609.17664	-810.15070	-34.75145	561.35315	
357	7.120	-791.98151	147.70145	571.37341	-755.08148	237.50340	1011.45984	-857.60895	290.32019	866.82239	-750.52527	213.51717	813.60547	-927.54724	94.33884	1097.69165	-837.36121	283.98764	730.74768	-842.85443	257.79559	627.64331				-746.60840	-5.17601	805.98169	-828.07227	252.38383	564.51239	-749.84583	15.66474	526.51532	-849.55835	264.54504	485.16690	-766.29901	210.03531	536.69897	-758.57269	-6.34265	988.25311	-720.40863	159.24144	222.86694	-772.76190	232.01653	201.89603	-882.61743	296.10883	144.66994	-672.62097	51.51297	162.40967	-676.14502	176.47057	163.35802	-594.05328	220.14615	174.01189	-659.63031	298.84628	156.29578	-623.39520	306.64926	158.31720	-557.42133	255.33754	163.84988	-527.94812	303.98865	146.28252	-144.24686	93.47507	1358.71936	-793.08453	72.51685	568.16193	-517.98364	-73.33376	143.06931	-549.70209	-28.07336	163.21317	-797.89594	182.42171	181.67816	-353.05173	253.36246	1172.84192	-792.83386	36.16658	172.71753	-725.18756	65.94698	220.17705	-831.58765	-49.80176	474.22519	-598.19775	26.20658	166.14920	-761.95544	-23.14692	203.54056	-875.95349	-78.78808	141.09819	-835.02863	-73.62572	862.91064	-830.11377	-65.04340	747.39325	-606.21918	-75.71523	156.57799	-647.56573	-67.96104	161.55490										-813.75476	-36.98949	609.26563	-809.89728	-35.11831	561.43213	
358	7.140	-791.98151	147.70145	571.37341	-755.75726	237.55981	1011.60938	-858.23724	289.74127	866.79266	-750.33942	213.09230	814.53351	-927.86035	94.06075	1097.53894	-837.63824	283.54147	730.52991	-842.90533	257.32806	627.61804				-746.25458	-5.54295	806.15698	-828.20453	252.05690	564.55798	-749.80566	15.80874	526.55853	-849.37506	264.19305	484.89966	-766.22180	209.94223	536.66418	-758.62360	-6.31797	988.34808	-720.40863	159.24144	222.86694	-772.52631	231.50974	201.74052	-882.67560	296.14902	144.79721	-672.80670	51.48804	162.57623	-676.23920	176.73001	162.83820	-594.05328	220.14615	174.01189	-659.74976	298.88321	156.33185	-623.31146	307.02756	158.38234	-557.34076	255.55078	163.81743	-527.94086	304.11801	146.27614	-146.07222	91.50469	1362.91577	-793.12921	72.09552	567.95569	-517.98364	-73.33376	143.06931	-549.70526	-28.07034	163.21281	-797.81152	183.03409	181.02751	-353.84778	252.96628	1177.40674	-792.79193	36.19923	172.75377	-725.18756	65.94698	220.17705	-831.27606	-50.19966	474.27005	-598.20197	26.17545	166.09743	-761.43866	-22.67986	202.88377	-875.69330	-78.64300	141.12302	-834.69745	-73.74843	863.05511	-829.94379	-65.14770	747.51733	-606.04755	-75.80807	156.57628	-647.39142	-67.83012	161.63025										-813.71698	-37.13884	609.23602	-809.68634	-35.27787	561.16602	
